<?xml version="1.0" encoding="us-ascii" standalone="no"?><svg xmlns="http://www.w3.org/2000/svg" xmlns:xlink="http://www.w3.org/1999/xlink" contentStyleType="text/css" height="783px" preserveAspectRatio="none" style="width:1112px;height:783px;background:#FFFFFF;" version="1.1" viewBox="0 0 1112 783" width="1112px" zoomAndPan="magnify"><defs/><g><text fill="#000000" font-family="sans-serif" font-size="14" font-weight="bold" lengthAdjust="spacing" textLength="219" x="439.5" y="24.5332">Carte de navigation des menus</text><!--cluster Main Menu--><g id="cluster_Main Menu"><rect fill="#DBEAFE" height="349" rx="2.5" ry="2.5" style="stroke:#181818;stroke-width:1.0;" width="199" x="7" y="255.6094"/><text fill="#000000" font-family="sans-serif" font-size="14" font-weight="bold" lengthAdjust="spacing" textLength="78" x="67.5" y="272.1426">Main Menu</text></g><!--cluster Players Menu--><g id="cluster_Players Menu"><rect fill="#7F57C9" height="183" rx="2.5" ry="2.5" style="stroke:#181818;stroke-width:1.0;" width="157" x="741" y="205.6094"/><text fill="#000000" font-family="sans-serif" font-size="14" font-weight="bold" lengthAdjust="spacing" textLength="95" x="772" y="222.1426">Players Menu</text></g><!--cluster Tournaments Menu--><g id="cluster_Tournaments Menu"><rect fill="#7F57C9" height="183" rx="2.5" ry="2.5" style="stroke:#181818;stroke-width:1.0;" width="456" x="236" y="45.6094"/><text fill="#000000" font-family="sans-serif" font-size="14" font-weight="bold" lengthAdjust="spacing" textLength="136" x="396" y="62.1426">Tournaments Menu</text></g><!--cluster Run tournament Menu--><g id="cluster_Run tournament Menu"><rect fill="#7F57C9" height="183" rx="2.5" ry="2.5" style="stroke:#181818;stroke-width:1.0;" width="438" x="239.5" y="299.6094"/><text fill="#000000" font-family="sans-serif" font-size="14" font-weight="bold" lengthAdjust="spacing" textLength="157" x="380" y="316.1426">Run tournament Menu</text></g><!--cluster Reporting Menu--><g id="cluster_Reporting Menu"><rect fill="#FEF3C7" height="183" rx="2.5" ry="2.5" style="stroke:#181818;stroke-width:1.0;" width="198" x="234" y="553.6094"/><text fill="#000000" font-family="sans-serif" font-size="14" font-weight="bold" lengthAdjust="spacing" textLength="114" x="276" y="570.1426">Reporting Menu</text></g><!--cluster Tournament Reporting Pages--><g id="cluster_Tournament Reporting Pages"><rect fill="#FDE68A" height="183" rx="2.5" ry="2.5" style="stroke:#181818;stroke-width:1.0;" width="627" x="479" y="594.6094"/><text fill="#000000" font-family="sans-serif" font-size="14" font-weight="bold" lengthAdjust="spacing" textLength="205" x="690" y="611.1426">Tournament Reporting Pages</text></g><!--entity menu_players--><g id="elem_menu_players"><rect fill="#F1F1F1" height="47.6094" rx="2.5" ry="2.5" style="stroke:#181818;stroke-width:0.5;" width="134" x="39.5" y="457.6094"/><rect fill="#F1F1F1" height="10" style="stroke:#181818;stroke-width:0.5;" width="15" x="153.5" y="462.6094"/><rect fill="#F1F1F1" height="2" style="stroke:#181818;stroke-width:0.5;" width="4" x="151.5" y="464.6094"/><rect fill="#F1F1F1" height="2" style="stroke:#181818;stroke-width:0.5;" width="4" x="151.5" y="468.6094"/><text fill="#000000" font-family="sans-serif" font-size="14" lengthAdjust="spacing" textLength="94" x="54.5" y="492.1426">Handle players</text></g><!--entity menu_tournaments--><g id="elem_menu_tournaments"><rect fill="#F1F1F1" height="47.6094" rx="2.5" ry="2.5" style="stroke:#181818;stroke-width:0.5;" width="167" x="23" y="291.6094"/><rect fill="#F1F1F1" height="10" style="stroke:#181818;stroke-width:0.5;" width="15" x="170" y="296.6094"/><rect fill="#F1F1F1" height="2" style="stroke:#181818;stroke-width:0.5;" width="4" x="168" y="298.6094"/><rect fill="#F1F1F1" height="2" style="stroke:#181818;stroke-width:0.5;" width="4" x="168" y="302.6094"/><text fill="#000000" font-family="sans-serif" font-size="14" lengthAdjust="spacing" textLength="127" x="38" y="326.1426">Handle tournaments</text></g><!--entity menu_run_tournament--><g id="elem_menu_run_tournament"><rect fill="#F1F1F1" height="47.6094" rx="2.5" ry="2.5" style="stroke:#181818;stroke-width:0.5;" width="142" x="35.5" y="374.6094"/><rect fill="#F1F1F1" height="10" style="stroke:#181818;stroke-width:0.5;" width="15" x="157.5" y="379.6094"/><rect fill="#F1F1F1" height="2" style="stroke:#181818;stroke-width:0.5;" width="4" x="155.5" y="381.6094"/><rect fill="#F1F1F1" height="2" style="stroke:#181818;stroke-width:0.5;" width="4" x="155.5" y="385.6094"/><text fill="#000000" font-family="sans-serif" font-size="14" lengthAdjust="spacing" textLength="102" x="50.5" y="409.1426">Run tournament</text></g><!--entity menu_reporting--><g id="elem_menu_reporting"><rect fill="#F1F1F1" height="47.6094" rx="2.5" ry="2.5" style="stroke:#181818;stroke-width:0.5;" width="102" x="55.5" y="540.6094"/><rect fill="#F1F1F1" height="10" style="stroke:#181818;stroke-width:0.5;" width="15" x="137.5" y="545.6094"/><rect fill="#F1F1F1" height="2" style="stroke:#181818;stroke-width:0.5;" width="4" x="135.5" y="547.6094"/><rect fill="#F1F1F1" height="2" style="stroke:#181818;stroke-width:0.5;" width="4" x="135.5" y="551.6094"/><text fill="#000000" font-family="sans-serif" font-size="14" lengthAdjust="spacing" textLength="62" x="70.5" y="575.1426">Reporting</text></g><!--entity add_player--><g id="elem_add_player"><rect fill="#F1F1F1" height="47.6094" rx="2.5" ry="2.5" style="stroke:#181818;stroke-width:0.5;" width="108" x="765.5" y="241.6094"/><rect fill="#F1F1F1" height="10" style="stroke:#181818;stroke-width:0.5;" width="15" x="853.5" y="246.6094"/><rect fill="#F1F1F1" height="2" style="stroke:#181818;stroke-width:0.5;" width="4" x="851.5" y="248.6094"/><rect fill="#F1F1F1" height="2" style="stroke:#181818;stroke-width:0.5;" width="4" x="851.5" y="252.6094"/><text fill="#000000" font-family="sans-serif" font-size="14" lengthAdjust="spacing" textLength="68" x="780.5" y="276.1426">Add player</text></g><!--entity player_details--><g id="elem_player_details"><rect fill="#F1F1F1" height="47.6094" rx="2.5" ry="2.5" style="stroke:#181818;stroke-width:0.5;" width="125" x="757" y="324.6094"/><rect fill="#F1F1F1" height="10" style="stroke:#181818;stroke-width:0.5;" width="15" x="862" y="329.6094"/><rect fill="#F1F1F1" height="2" style="stroke:#181818;stroke-width:0.5;" width="4" x="860" y="331.6094"/><rect fill="#F1F1F1" height="2" style="stroke:#181818;stroke-width:0.5;" width="4" x="860" y="335.6094"/><text fill="#000000" font-family="sans-serif" font-size="14" lengthAdjust="spacing" textLength="85" x="772" y="359.1426">Player details</text></g><!--entity add_tournament--><g id="elem_add_tournament"><rect fill="#F1F1F1" height="47.6094" rx="2.5" ry="2.5" style="stroke:#181818;stroke-width:0.5;" width="141" x="262.5" y="81.6094"/><rect fill="#F1F1F1" height="10" style="stroke:#181818;stroke-width:0.5;" width="15" x="383.5" y="86.6094"/><rect fill="#F1F1F1" height="2" style="stroke:#181818;stroke-width:0.5;" width="4" x="381.5" y="88.6094"/><rect fill="#F1F1F1" height="2" style="stroke:#181818;stroke-width:0.5;" width="4" x="381.5" y="92.6094"/><text fill="#000000" font-family="sans-serif" font-size="14" lengthAdjust="spacing" textLength="101" x="277.5" y="116.1426">Add tournament</text></g><!--entity player_tournament--><g id="elem_player_tournament"><rect fill="#F1F1F1" height="47.6094" rx="2.5" ry="2.5" style="stroke:#181818;stroke-width:0.5;" width="162" x="252" y="164.6094"/><rect fill="#F1F1F1" height="10" style="stroke:#181818;stroke-width:0.5;" width="15" x="394" y="169.6094"/><rect fill="#F1F1F1" height="2" style="stroke:#181818;stroke-width:0.5;" width="4" x="392" y="171.6094"/><rect fill="#F1F1F1" height="2" style="stroke:#181818;stroke-width:0.5;" width="4" x="392" y="175.6094"/><text fill="#000000" font-family="sans-serif" font-size="14" lengthAdjust="spacing" textLength="122" x="267" y="199.1426">Tournament details</text></g><!--entity add_player_to_tournament--><g id="elem_add_player_to_tournament"><rect fill="#F1F1F1" height="47.6094" rx="2.5" ry="2.5" style="stroke:#181818;stroke-width:0.5;" width="200" x="476" y="164.6094"/><rect fill="#F1F1F1" height="10" style="stroke:#181818;stroke-width:0.5;" width="15" x="656" y="169.6094"/><rect fill="#F1F1F1" height="2" style="stroke:#181818;stroke-width:0.5;" width="4" x="654" y="171.6094"/><rect fill="#F1F1F1" height="2" style="stroke:#181818;stroke-width:0.5;" width="4" x="654" y="175.6094"/><text fill="#000000" font-family="sans-serif" font-size="14" lengthAdjust="spacing" textLength="160" x="491" y="199.1426">Add player to tournament</text></g><!--entity select_tournament--><g id="elem_select_tournament"><rect fill="#F1F1F1" height="47.6094" rx="2.5" ry="2.5" style="stroke:#181818;stroke-width:0.5;" width="155" x="255.5" y="374.6094"/><rect fill="#F1F1F1" height="10" style="stroke:#181818;stroke-width:0.5;" width="15" x="390.5" y="379.6094"/><rect fill="#F1F1F1" height="2" style="stroke:#181818;stroke-width:0.5;" width="4" x="388.5" y="381.6094"/><rect fill="#F1F1F1" height="2" style="stroke:#181818;stroke-width:0.5;" width="4" x="388.5" y="385.6094"/><text fill="#000000" font-family="sans-serif" font-size="14" lengthAdjust="spacing" textLength="115" x="270.5" y="409.1426">Select tournament</text></g><!--entity run_tournament--><g id="elem_run_tournament"><rect fill="#F1F1F1" height="47.6094" rx="2.5" ry="2.5" style="stroke:#181818;stroke-width:0.5;" width="171" x="490.5" y="418.6094"/><rect fill="#F1F1F1" height="10" style="stroke:#181818;stroke-width:0.5;" width="15" x="641.5" y="423.6094"/><rect fill="#F1F1F1" height="2" style="stroke:#181818;stroke-width:0.5;" width="4" x="639.5" y="425.6094"/><rect fill="#F1F1F1" height="2" style="stroke:#181818;stroke-width:0.5;" width="4" x="639.5" y="429.6094"/><text fill="#000000" font-family="sans-serif" font-size="14" lengthAdjust="spacing" textLength="131" x="505.5" y="453.1426">Run tournament turn</text></g><!--entity add_round_results--><g id="elem_add_round_results"><rect fill="#F1F1F1" height="47.6094" rx="2.5" ry="2.5" style="stroke:#181818;stroke-width:0.5;" width="140" x="506" y="335.6094"/><rect fill="#F1F1F1" height="10" style="stroke:#181818;stroke-width:0.5;" width="15" x="626" y="340.6094"/><rect fill="#F1F1F1" height="2" style="stroke:#181818;stroke-width:0.5;" width="4" x="624" y="342.6094"/><rect fill="#F1F1F1" height="2" style="stroke:#181818;stroke-width:0.5;" width="4" x="624" y="346.6094"/><text fill="#000000" font-family="sans-serif" font-size="14" lengthAdjust="spacing" textLength="100" x="521" y="370.1426">Add turn results</text></g><!--entity report_players--><g id="elem_report_players"><rect fill="#F1F1F1" height="47.6094" rx="2.5" ry="2.5" style="stroke:#181818;stroke-width:0.5;" width="129" x="268.5" y="589.6094"/><rect fill="#F1F1F1" height="10" style="stroke:#181818;stroke-width:0.5;" width="15" x="377.5" y="594.6094"/><rect fill="#F1F1F1" height="2" style="stroke:#181818;stroke-width:0.5;" width="4" x="375.5" y="596.6094"/><rect fill="#F1F1F1" height="2" style="stroke:#181818;stroke-width:0.5;" width="4" x="375.5" y="600.6094"/><text fill="#000000" font-family="sans-serif" font-size="14" lengthAdjust="spacing" textLength="89" x="283.5" y="624.1426">Players report</text></g><!--entity report_tournaments--><g id="elem_report_tournaments"><rect fill="#F1F1F1" height="47.6094" rx="2.5" ry="2.5" style="stroke:#181818;stroke-width:0.5;" width="166" x="250" y="672.6094"/><rect fill="#F1F1F1" height="10" style="stroke:#181818;stroke-width:0.5;" width="15" x="396" y="677.6094"/><rect fill="#F1F1F1" height="2" style="stroke:#181818;stroke-width:0.5;" width="4" x="394" y="679.6094"/><rect fill="#F1F1F1" height="2" style="stroke:#181818;stroke-width:0.5;" width="4" x="394" y="683.6094"/><text fill="#000000" font-family="sans-serif" font-size="14" lengthAdjust="spacing" textLength="126" x="265" y="707.1426">Tournaments report</text></g><!--entity tournament_details--><g id="elem_tournament_details"><rect fill="#F1F1F1" height="47.6094" rx="2.5" ry="2.5" style="stroke:#181818;stroke-width:0.5;" width="162" x="495" y="672.6094"/><rect fill="#F1F1F1" height="10" style="stroke:#181818;stroke-width:0.5;" width="15" x="637" y="677.6094"/><rect fill="#F1F1F1" height="2" style="stroke:#181818;stroke-width:0.5;" width="4" x="635" y="679.6094"/><rect fill="#F1F1F1" height="2" style="stroke:#181818;stroke-width:0.5;" width="4" x="635" y="683.6094"/><text fill="#000000" font-family="sans-serif" font-size="14" lengthAdjust="spacing" textLength="122" x="510" y="707.1426">Tournament details</text></g><!--entity tournament_players--><g id="elem_tournament_players"><rect fill="#F1F1F1" height="47.6094" rx="2.5" ry="2.5" style="stroke:#181818;stroke-width:0.5;" width="167" x="736" y="713.6094"/><rect fill="#F1F1F1" height="10" style="stroke:#181818;stroke-width:0.5;" width="15" x="883" y="718.6094"/><rect fill="#F1F1F1" height="2" style="stroke:#181818;stroke-width:0.5;" width="4" x="881" y="720.6094"/><rect fill="#F1F1F1" height="2" style="stroke:#181818;stroke-width:0.5;" width="4" x="881" y="724.6094"/><text fill="#000000" font-family="sans-serif" font-size="14" lengthAdjust="spacing" textLength="127" x="751" y="748.1426">Tournament players</text></g><!--entity tournament_turns--><g id="elem_tournament_turns"><rect fill="#F1F1F1" height="47.6094" rx="2.5" ry="2.5" style="stroke:#181818;stroke-width:0.5;" width="153" x="743" y="630.6094"/><rect fill="#F1F1F1" height="10" style="stroke:#181818;stroke-width:0.5;" width="15" x="876" y="635.6094"/><rect fill="#F1F1F1" height="2" style="stroke:#181818;stroke-width:0.5;" width="4" x="874" y="637.6094"/><rect fill="#F1F1F1" height="2" style="stroke:#181818;stroke-width:0.5;" width="4" x="874" y="641.6094"/><text fill="#000000" font-family="sans-serif" font-size="14" lengthAdjust="spacing" textLength="113" x="758" y="665.1426">Tournament turns</text></g><!--entity round_matches--><g id="elem_round_matches"><rect fill="#F1F1F1" height="47.6094" rx="2.5" ry="2.5" style="stroke:#181818;stroke-width:0.5;" width="127" x="963" y="630.6094"/><rect fill="#F1F1F1" height="10" style="stroke:#181818;stroke-width:0.5;" width="15" x="1070" y="635.6094"/><rect fill="#F1F1F1" height="2" style="stroke:#181818;stroke-width:0.5;" width="4" x="1068" y="637.6094"/><rect fill="#F1F1F1" height="2" style="stroke:#181818;stroke-width:0.5;" width="4" x="1068" y="641.6094"/><text fill="#000000" font-family="sans-serif" font-size="14" lengthAdjust="spacing" textLength="87" x="978" y="665.1426">Turn matches</text></g><!--link menu_players to add_player--><g id="link_menu_players_add_player"><path d="M173.77,468.1294 C189.18,461.9194 203.99,452.8494 214,439.6094 C230.16,418.2294 206.97,338.4794 226,319.6094 C301.01,245.2594 628.2786,254.9184 759.3286,261.9384 " fill="none" id="menu_players-to-add_player" style="stroke:#181818;stroke-width:1.0;"/><polygon fill="#181818" points="765.32,262.2594,756.5468,257.7837,760.3272,261.9919,756.1189,265.7722,765.32,262.2594" style="stroke:#181818;stroke-width:1.0;"/></g><!--link menu_players to player_details--><g id="link_menu_players_player_details"><path d="M173.84,498.6994 C287.42,524.3794 523.92,561.9494 700,482.6094 C749.97,460.0894 784.3855,410.1344 802.7855,378.0444 " fill="none" id="menu_players-to-player_details" style="stroke:#181818;stroke-width:1.0;"/><polygon fill="#181818" points="805.77,372.8394,797.8232,378.6573,803.2829,377.1769,804.7633,382.6366,805.77,372.8394" style="stroke:#181818;stroke-width:1.0;"/></g><!--link menu_tournaments to add_tournament--><g id="link_menu_tournaments_add_tournament"><path d="M118.61,291.4894 C136.42,255.2694 174.65,186.8094 226,146.6094 C236.8,138.1594 244.0409,133.6463 256.8809,128.1063 " fill="none" id="menu_tournaments-to-add_tournament" style="stroke:#181818;stroke-width:1.0;"/><polygon fill="#181818" points="262.39,125.7294,252.5417,125.6221,257.7991,127.7102,255.711,132.9676,262.39,125.7294" style="stroke:#181818;stroke-width:1.0;"/></g><!--link menu_tournaments to player_tournament--><g id="link_menu_tournaments_player_tournament"><path d="M142.59,291.5094 C165.82,275.9494 197.19,255.6994 226,239.6094 C242.85,230.1994 256.2818,223.3669 273.3718,215.2369 " fill="none" id="menu_tournaments-to-player_tournament" style="stroke:#181818;stroke-width:1.0;"/><polygon fill="#181818" points="278.79,212.6594,268.9444,212.9135,274.2749,214.8073,272.3811,220.1377,278.79,212.6594" style="stroke:#181818;stroke-width:1.0;"/></g><!--link player_tournament to add_player_to_tournament--><g id="link_player_tournament_add_player_to_tournament"><path d="M414.25,188.6094 C433.97,188.6094 449.31,188.6094 469.8,188.6094 " fill="none" id="player_tournament-to-add_player_to_tournament" style="stroke:#181818;stroke-width:1.0;"/><polygon fill="#181818" points="475.8,188.6094,466.8,184.6094,470.8,188.6094,466.8,192.6094,475.8,188.6094" style="stroke:#181818;stroke-width:1.0;"/></g><!--link add_player_to_tournament to add_player--><g id="link_add_player_to_tournament_add_player"><path d="M652.42,212.6594 C689.09,224.3494 726.5837,236.2962 759.7237,246.8662 " fill="none" id="add_player_to_tournament-to-add_player" style="stroke:#181818;stroke-width:1.0;"/><polygon fill="#181818" points="765.44,248.6894,758.081,242.1437,760.6764,247.17,755.6501,249.7654,765.44,248.6894" style="stroke:#181818;stroke-width:1.0;"/></g><!--link menu_run_tournament to select_tournament--><g id="link_menu_run_tournament_select_tournament"><path d="M177.61,398.6094 C202.31,398.6094 224.2,398.6094 249.41,398.6094 " fill="none" id="menu_run_tournament-to-select_tournament" style="stroke:#181818;stroke-width:1.0;"/><polygon fill="#181818" points="255.41,398.6094,246.41,394.6094,250.41,398.6094,246.41,402.6094,255.41,398.6094" style="stroke:#181818;stroke-width:1.0;"/></g><!--link select_tournament to run_tournament--><g id="link_select_tournament_run_tournament"><path d="M410.59,412.5894 C435.95,417.2194 458.4077,421.3209 484.3477,426.0609 " fill="none" id="select_tournament-to-run_tournament" style="stroke:#181818;stroke-width:1.0;"/><polygon fill="#181818" points="490.25,427.1394,482.1156,421.5868,485.3314,426.2406,480.6776,429.4564,490.25,427.1394" style="stroke:#181818;stroke-width:1.0;"/></g><!--link select_tournament to add_round_results--><g id="link_select_tournament_add_round_results"><path d="M410.59,386.2194 C441.18,381.2694 470.2373,376.5693 500.0373,371.7393 " fill="none" id="select_tournament-to-add_round_results" style="stroke:#181818;stroke-width:1.0;"/><polygon fill="#181818" points="505.96,370.7794,496.436,368.2708,501.0244,371.5793,497.7159,376.1678,505.96,370.7794" style="stroke:#181818;stroke-width:1.0;"/></g><!--link menu_reporting to report_players--><g id="link_menu_reporting_report_players"><path d="M157.6,575.5494 C190.3,582.6794 227.3979,590.7804 262.5079,598.4404 " fill="none" id="menu_reporting-to-report_players" style="stroke:#181818;stroke-width:1.0;"/><polygon fill="#181818" points="268.37,599.7194,260.4295,593.8929,263.4849,598.6536,258.7242,601.709,268.37,599.7194" style="stroke:#181818;stroke-width:1.0;"/></g><!--link menu_reporting to report_tournaments--><g id="link_menu_reporting_report_tournaments"><path d="M134.18,588.6894 C157.23,608.5794 192.08,636.5494 226,655.6094 C237.09,661.8394 243.7903,665.2346 255.8803,670.2646 " fill="none" id="menu_reporting-to-report_tournaments" style="stroke:#181818;stroke-width:1.0;"/><polygon fill="#181818" points="261.42,672.5694,254.647,665.4191,256.8036,670.6487,251.574,672.8053,261.42,672.5694" style="stroke:#181818;stroke-width:1.0;"/></g><!--link report_tournaments to tournament_details--><g id="link_report_tournaments_tournament_details"><path d="M416.26,696.6094 C441.63,696.6094 463.51,696.6094 488.74,696.6094 " fill="none" id="report_tournaments-to-tournament_details" style="stroke:#181818;stroke-width:1.0;"/><polygon fill="#181818" points="494.74,696.6094,485.74,692.6094,489.74,696.6094,485.74,700.6094,494.74,696.6094" style="stroke:#181818;stroke-width:1.0;"/></g><!--link tournament_details to tournament_players--><g id="link_tournament_details_tournament_players"><path d="M657.08,710.2094 C682.34,714.4894 704.3847,718.2349 729.8247,722.5549 " fill="none" id="tournament_details-to-tournament_players" style="stroke:#181818;stroke-width:1.0;"/><polygon fill="#181818" points="735.74,723.5594,727.5367,718.1091,730.8106,722.7223,726.1974,725.9962,735.74,723.5594" style="stroke:#181818;stroke-width:1.0;"/></g><!--link tournament_details to tournament_turns--><g id="link_tournament_details_tournament_turns"><path d="M657.08,682.6794 C684.68,677.8794 709.5688,673.5576 736.8188,668.8176 " fill="none" id="tournament_details-to-tournament_turns" style="stroke:#181818;stroke-width:1.0;"/><polygon fill="#181818" points="742.73,667.7894,733.1777,665.3909,737.804,668.6462,734.5486,673.2725,742.73,667.7894" style="stroke:#181818;stroke-width:1.0;"/></g><!--link tournament_turns to round_matches--><g id="link_tournament_turns_round_matches"><path d="M896.25,654.6094 C918.15,654.6094 935.8,654.6094 956.81,654.6094 " fill="none" id="tournament_turns-to-round_matches" style="stroke:#181818;stroke-width:1.0;"/><polygon fill="#181818" points="962.81,654.6094,953.81,650.6094,957.81,654.6094,953.81,658.6094,962.81,654.6094" style="stroke:#181818;stroke-width:1.0;"/></g><!--SRC=[XPJBIWCn58RtUOf3NNSbMjq8jHVS58gw4ocnaqu3qqp9P4GHtzrSEyb91hjg_tmvrpzLN3KC5bGg1XK3GJzvJHLlXVxLmOc9lYEaOGS5gWN9wwE2YaksDmWvSdtbqBRge_qYnAXKr3hSP4EvW8s-F86hvUDglbx13m7zUNkYejB4kQ7VJ7RlG5sIdHSIIBMz55GVgmYCH0S_zo8Y1r3s8e8zoywjL5pK4HOayfkqi7K5XIvcXvlP_ZvqCQygtu8DHAlAD-2EtLqzGKLvusftnpileLolGq_Z-L2F9YTkRuXJoetfeGcpsqBuoxtuQbfvElnoyI-iqHTmWiwg-ORIW4f_itXfctOgMWB9khxn9h5pqUBEYxZWiEvGwtgrlbxCGgrXwyuLBhFzcXeqNbYEnXOTMpGCXMnfpJfJoN9rUpSFbOpiSeXzyHB6uxSLuICDs0bci1KzQYPyecf_P1upq_M2wIz-lp2TFiJF8Jj3xu3WDtq942sxoEIc9fc4ga5E7Zl0FP32tubbSWjdYkMGTyjGvbkI_ZsvIAaNnudOWYJNB5gmKYvXCgJ-dtGMmeAZOWVz0G00]--></g></svg>